<?xml version="1.0" encoding="UTF-8" standalone="no"?>
<svg
   fill="#000000"
   height="800px"
   width="800px"
   version="1.1"
   id="Capa_1"
   viewBox="-48.92 -48.92 587.08 587.08"
   xml:space="preserve"
   stroke="#000000"
   stroke-width="0.00489242"
   transform="matrix(1, 0, 0, 1, 0, 0)rotate(0)"
   sodipodi:docname="bulb.svg"
   inkscape:version="1.4 (e7c3feb1, 2024-10-09)"
   xmlns:inkscape="http://www.inkscape.org/namespaces/inkscape"
   xmlns:sodipodi="http://sodipodi.sourceforge.net/DTD/sodipodi-0.dtd"
   xmlns="http://www.w3.org/2000/svg"
   xmlns:svg="http://www.w3.org/2000/svg"><defs
   id="defs3"><linearGradient
     id="swatch13"
     inkscape:swatch="solid"><stop
       style="stop-color:#000000;stop-opacity:1;"
       offset="0"
       id="stop13" /></linearGradient></defs><sodipodi:namedview
   id="namedview3"
   pagecolor="#ffffff"
   bordercolor="#000000"
   borderopacity="0.25"
   inkscape:showpageshadow="2"
   inkscape:pageopacity="0.0"
   inkscape:pagecheckerboard="0"
   inkscape:deskcolor="#d1d1d1"
   inkscape:zoom="1.0975"
   inkscape:cx="400"
   inkscape:cy="399.54442"
   inkscape:window-width="1904"
   inkscape:window-height="1012"
   inkscape:window-x="8"
   inkscape:window-y="33"
   inkscape:window-maximized="0"
   inkscape:current-layer="g3" />

    <g
   id="SVGRepo_bgCarrier"
   stroke-width="0" />

    <g
   id="SVGRepo_tracerCarrier"
   stroke-linecap="round"
   stroke-linejoin="round"
   stroke="#CCCCCC"
   stroke-width="0.9784840000000001" />

    <g
   id="SVGRepo_iconCarrier">
        <g
   id="g3">
            <path
   style="fill:red;fill-opacity:1;stroke:#000000;stroke-width:0.00637813;stroke-linecap:square;stroke-dasharray:none;stroke-dashoffset:0.589606"
   d="m 399.13867,122.97836 c -54.45104,1.03113 -108.10982,27.88925 -140.21583,72.13113 -30.01805,40.24957 -42.00928,93.50881 -31.30859,142.65211 6.43328,34.56553 24.13543,66.38143 48.3082,91.66968 35.73854,40.62057 59.35163,92.35545 63.51674,146.53051 -0.52243,5.40826 2.39389,8.02611 7.87359,6.51436 37.25086,0 74.50172,0 111.75257,0 2.62766,-7.39656 1.83345,-16.17808 3.60343,-24.03589 7.37474,-48.95608 30.89348,-94.70147 63.68403,-131.50648 19.72287,-21.05618 36.12353,-45.67206 44.60747,-73.43862 17.14401,-52.65145 6.87014,-112.98877 -26.2742,-157.27328 -28.55456,-39.18524 -73.38652,-66.28085 -121.70777,-71.80668 -7.90331,-0.98233 -15.87192,-1.55793 -23.83964,-1.43684 z"
   id="path13"
   transform="matrix(0.73385,0,0,0.73385,-48.92,-48.92)" /><g
   id="g2"
   style="fill:#000000;fill-opacity:1">
                <path
   d="M416.321,171.943c0-97.8-82.2-176.9-181-171.7c-89.5,5.2-160.3,79.1-162.4,168.6c0,44.7,16.6,86.3,45.8,118.6 c47.7,51.1,41.6,110.3,41.6,110.3c0,11.4,9.4,20.8,20.8,20.8h126.9c11.4,0,20.8-9.4,21.8-20.8c0,0-7-57.7,40.6-109.2 C399.621,257.243,416.321,215.643,416.321,171.943z M288.321,377.943h-87.4c-2.1-42.7-20.8-84.3-51-116.5 c-22.9-25-34.3-57.2-34.3-90.5c1-68.7,54.1-124.8,122.8-129c74.9-4.2,137.3,56.2,137.3,130c0,32.3-12.5,64.5-35.4,88.4 C309.121,293.643,290.421,335.243,288.321,377.943z"
   id="path1"
   style="fill:#000000;fill-opacity:1;stroke-width:0.00513695;stroke-dasharray:none" />
                <path
   d="M281.021,447.643h-73.9c-11.4,0-20.8,9.4-20.8,20.8s9.4,20.8,20.8,20.8h73.9c11.4,0,20.8-9.4,20.8-20.8 C301.821,457.043,292.521,447.643,281.021,447.643z"
   id="path2"
   style="fill:#000000;fill-opacity:1" />
            </g>
        </g>
    </g>

</svg>
