<?xml version="1.0" encoding="UTF-8" standalone="no"?>
<svg
   version="1.1"
   viewBox="0 0 76 76"
   preserveAspectRatio="xMidYMid meet"
   enable-background="new 0 0 76 76"
   id="svg1"
   sodipodi:docname="number-0.svg"
   inkscape:version="1.4 (e7c3feb100, 2024-10-09)"
   xmlns:inkscape="http://www.inkscape.org/namespaces/inkscape"
   xmlns:sodipodi="http://sodipodi.sourceforge.net/DTD/sodipodi-0.dtd"
   xmlns="http://www.w3.org/2000/svg"
   xmlns:svg="http://www.w3.org/2000/svg">
  <defs
     id="defs1" />
  <sodipodi:namedview
     id="namedview1"
     pagecolor="#505050"
     bordercolor="#ffffff"
     borderopacity="1"
     inkscape:showpageshadow="0"
     inkscape:pageopacity="0"
     inkscape:pagecheckerboard="1"
     inkscape:deskcolor="#505050"
     inkscape:zoom="13.797931"
     inkscape:cx="26.018393"
     inkscape:cy="31.743889"
     inkscape:window-width="1712"
     inkscape:window-height="1035"
     inkscape:window-x="1374"
     inkscape:window-y="46"
     inkscape:window-maximized="0"
     inkscape:current-layer="number-6" />
  <g
     id="number-6">
    <use
       href="#blank"
       id="use1" />
    <path
       fill="#008284"
       d="M 66.856,20.402 C 66.808016,13.505266 61.747,9.002 55.457,9.002 H 20.544 c -6.29,0 -11.4,5.104 -11.4,11.4 v 34.197 c 0,6.29 5.11,11.4 11.4,11.4 h 34.913 c 6.29,0 11.292667,-5.110899 11.399,-11.4 0.05675,-3.356693 0.03148,-29.672838 0,-34.197 z m -47.632852,1.477732 c 0,-1.569 1.280004,-2.853547 2.851,-2.85 l 32.093545,0.07248 c 1.569996,0.0035 2.830157,1.280138 2.851,2.85 l 0.435213,32.779777 c 0.02084,1.569862 -1.280061,2.83701 -2.851,2.851 L 22.04934,57.872883 c -1.569937,0.01398 -2.852176,-1.28 -2.851,-2.851 z"
       id="path1"
       sodipodi:nodetypes="ssssssssscsssssssc"
       style="fill:#7a7a7a;fill-opacity:1" />
  </g>
</svg>
